<?xml version="1.0" standalone="no"?>
<!DOCTYPE svg PUBLIC "-//W3C//DTD SVG 20010904//EN"
 "http://www.w3.org/TR/2001/REC-SVG-20010904/DTD/svg10.dtd">
<svg version="1.0" xmlns="http://www.w3.org/2000/svg"
 width="484.000000pt" height="484.000000pt" viewBox="0 0 484.000000 484.000000"
 preserveAspectRatio="xMidYMid meet">
<metadata>
Created by potrace 1.14, written by Peter Selinger 2001-2017
</metadata>
<g transform="translate(0.000000,484.000000) scale(0.100000,-0.100000)"
fill="#000000" stroke="none">
<path d="M2260 3758 c0 -10 -8 -18 -17 -18 -13 0 -14 -3 -6 -11 6 -6 9 -17 7
-24 -3 -7 6 -12 25 -12 17 0 28 4 25 9 -3 5 0 15 6 23 10 12 10 15 0 15 -7 0
-19 8 -26 18 -13 16 -13 16 -14 0z"/>
<path d="M2570 3660 c-10 -10 -14 -25 -10 -40 4 -18 8 -21 14 -12 6 11 11 11
24 0 13 -11 15 -11 10 3 -4 9 -1 22 5 28 8 8 7 11 -5 11 -9 0 -18 6 -20 13 -2
9 -7 9 -18 -3z"/>
<path d="M2780 3665 c0 -10 -10 -15 -27 -15 l-28 -1 22 -18 c15 -12 18 -22 12
-32 -15 -24 -10 -29 16 -17 19 8 28 8 41 -3 16 -13 17 -11 10 14 -5 20 -2 29
9 33 23 9 18 27 -6 21 -15 -4 -23 0 -26 14 -6 22 -23 26 -23 4z m20 -35 c0 -5
-4 -10 -10 -10 -5 0 -10 5 -10 10 0 6 5 10 10 10 6 0 10 -4 10 -10z"/>
<path d="M1950 3635 c0 -10 -10 -15 -27 -15 -25 0 -26 -1 -8 -20 9 -10 15 -26
12 -35 -7 -18 -3 -19 23 -5 13 7 21 7 25 0 10 -17 28 -11 21 6 -4 10 1 25 10
35 16 18 16 19 -5 19 -12 0 -24 7 -27 15 -4 8 -10 15 -15 15 -5 0 -9 -7 -9
-15z"/>
<path d="M2280 3585 c0 -9 -9 -15 -25 -15 -28 0 -33 -15 -9 -24 11 -4 14 -13
10 -31 -7 -27 3 -32 22 -13 9 9 15 9 24 0 19 -19 29 -14 22 13 -4 18 -1 27 10
31 24 9 19 24 -9 24 -16 0 -25 6 -25 15 0 8 -4 15 -10 15 -5 0 -10 -7 -10 -15z"/>
<path d="M2895 3478 c-4 -10 -15 -18 -24 -19 -10 0 -11 -2 -3 -6 6 -2 12 -10
12 -16 0 -7 11 -13 25 -13 14 -1 22 2 19 8 -4 6 0 14 7 19 11 7 11 9 -3 9 -9
0 -18 8 -21 18 -4 16 -4 16 -12 0z"/>
<path d="M2374 3411 c-17 -36 -66 -114 -109 -172 l-78 -106 -63 44 c-35 24
-77 60 -93 80 l-29 35 -26 -55 c-23 -51 -45 -120 -60 -189 l-6 -26 -29 29
c-16 16 -37 29 -45 29 -19 0 -20 -4 -5 -33 10 -19 7 -18 -18 6 -16 15 -37 27
-46 27 -16 0 -16 -3 3 -40 27 -52 25 -58 -6 -26 -15 14 -35 26 -45 26 -17 0
-16 -4 6 -47 13 -27 42 -114 64 -195 43 -157 63 -205 108 -258 37 -44 146
-115 296 -191 67 -34 141 -75 164 -90 23 -16 45 -29 49 -29 4 0 35 18 69 39
33 21 108 62 166 91 186 94 280 165 320 242 10 20 39 110 64 200 26 89 55 178
66 196 23 41 24 42 0 42 -11 0 -31 -14 -45 -31 -31 -37 -33 -31 -6 21 11 22
20 42 20 45 0 12 -29 3 -55 -17 l-28 -21 12 21 c10 19 9 22 -8 22 -11 0 -32
-13 -48 -30 l-28 -30 -17 69 c-9 37 -30 99 -47 136 l-31 68 -22 -29 c-26 -33
-53 -56 -117 -100 l-45 -31 -78 106 c-43 58 -93 136 -111 172 l-33 67 -30 -67z"/>
<path d="M2087 3450 c-3 -13 -14 -20 -29 -20 -22 -1 -22 -1 -5 -15 13 -9 17
-20 12 -34 -7 -23 4 -28 23 -9 8 8 15 8 28 -2 14 -12 16 -12 12 6 -1 12 3 28
11 37 12 15 11 17 -8 17 -12 0 -21 6 -21 14 0 24 -17 28 -23 6z m23 -34 c0 -3
-4 -8 -10 -11 -5 -3 -10 -1 -10 4 0 6 5 11 10 11 6 0 10 -2 10 -4z"/>
<path d="M2680 3398 c0 -10 -8 -18 -17 -18 -13 0 -14 -3 -6 -11 6 -6 9 -17 7
-24 -3 -7 6 -12 25 -12 17 0 28 4 25 9 -3 5 0 15 6 23 10 12 10 15 0 15 -7 0
-19 8 -26 18 -13 16 -13 16 -14 0z"/>
<path d="M1858 3302 c-4 -14 -14 -22 -27 -22 -25 0 -28 -15 -5 -24 10 -4 13
-13 9 -26 -7 -21 9 -28 21 -9 4 8 9 8 17 0 18 -18 29 -13 22 9 -4 13 -1 22 9
26 22 8 20 24 -2 24 -11 0 -23 10 -29 22 l-10 22 -5 -22z"/>
<path d="M2945 3186 c-17 -9 -19 -15 -10 -31 5 -11 20 -21 33 -22 14 -2 21 1
17 7 -4 6 -1 17 5 25 10 12 9 15 -3 15 -8 0 -17 4 -19 8 -1 4 -12 3 -23 -2z"/>
<path d="M2347 2093 c-4 -3 -7 -21 -7 -40 0 -30 -2 -33 -19 -23 -31 16 -57 12
-90 -16 -27 -22 -31 -32 -31 -74 0 -33 6 -55 21 -73 19 -25 25 -26 100 -26
l79 1 0 129 c0 128 0 129 -23 129 -13 0 -27 -3 -30 -7z m-26 -113 c19 -11 25
-43 13 -74 -4 -10 -18 -16 -35 -16 -41 0 -59 38 -35 75 18 28 28 30 57 15z"/>
<path d="M2583 2076 c-38 -17 -73 -69 -73 -109 0 -41 24 -91 53 -110 30 -19
94 -22 130 -6 28 13 67 76 67 108 0 89 -97 152 -177 117z m104 -48 c35 -32 33
-109 -3 -137 -74 -58 -167 28 -122 112 27 51 85 63 125 25z"/>
<path d="M1420 1960 l0 -120 71 0 c67 0 70 1 67 23 -2 18 -10 23 -40 25 l-38
3 0 95 0 94 -30 0 -30 0 0 -120z"/>
<path d="M1618 2024 c-35 -19 -48 -43 -48 -92 0 -58 37 -92 100 -92 42 0 52 4
74 31 75 88 -24 209 -126 153z m73 -44 c22 -12 26 -59 7 -78 -40 -40 -95 16
-63 64 17 27 27 29 56 14z"/>
<path d="M1783 2018 c3 -13 18 -58 33 -101 l28 -78 35 3 c33 3 35 5 68 93 18
50 33 93 33 98 0 4 -13 7 -28 7 -25 0 -30 -5 -41 -42 -30 -100 -30 -100 -54
-28 -20 58 -25 65 -51 68 -25 3 -28 1 -23 -20z"/>
<path d="M2019 2011 c-23 -24 -29 -38 -29 -74 0 -62 33 -97 92 -97 50 0 88 22
88 51 0 21 -38 27 -57 8 -14 -14 -55 -8 -61 9 -3 9 14 12 62 12 l66 0 0 31 c0
45 -47 89 -95 89 -27 0 -44 -8 -66 -29z m99 -38 c2 -9 -8 -13 -32 -13 -34 0
-44 8 -29 24 11 11 56 2 61 -11z"/>
<path d="M2852 2031 c-7 -4 -24 -6 -38 -3 l-24 4 0 -96 c0 -89 1 -96 20 -96
18 0 20 7 20 68 0 72 10 92 45 92 35 0 45 -20 45 -92 0 -61 2 -68 20 -68 18 0
20 7 20 79 0 74 -2 81 -26 100 -28 22 -60 27 -82 12z"/>
<path d="M3055 2031 c-63 -27 -82 -116 -36 -165 20 -21 34 -26 72 -26 39 0 51
5 68 26 33 41 3 64 -32 24 -9 -11 -24 -20 -33 -20 -24 0 -54 19 -54 35 0 12
15 15 70 15 l70 0 0 29 c0 58 -72 105 -125 82z m66 -41 c38 -21 23 -40 -31
-40 -34 0 -50 4 -50 13 0 33 43 47 81 27z"/>
<path d="M3242 2028 c-39 -20 -42 -81 -5 -95 68 -23 82 -33 77 -47 -8 -21 -50
-21 -62 0 -5 9 -18 14 -31 12 l-23 -3 22 -27 c17 -23 30 -28 64 -28 91 0 102
77 16 109 -25 9 -45 23 -45 31 0 21 39 24 55 5 13 -16 50 -21 50 -6 0 5 -8 18
-17 30 -22 25 -70 35 -101 19z"/>
<path d="M1100 1376 c0 -28 51 -105 120 -179 41 -45 166 -108 259 -131 116
-29 286 -36 941 -36 832 0 912 7 1085 90 90 43 167 119 223 217 27 49 15 56
-41 24 -111 -63 -62 -61 -1267 -61 -1205 0 -1156 -2 -1267 61 -42 24 -53 27
-53 15z"/>
</g>
</svg>
